<svg width="625" height="302" viewBox="0 0 625 302" fill="none" xmlns="http://www.w3.org/2000/svg">
<g clip-path="url(#clip0_40_1321)">
<path d="M220.2 58.385H310C330.8 58.385 349.25 62.275 365.35 70.055C381.45 77.835 393.93 88.865 402.79 103.155C411.65 117.445 416.08 134.175 416.08 153.345C416.08 172.515 411.65 189.255 402.79 203.535C393.93 217.825 381.45 228.865 365.35 236.635C349.25 244.415 330.8 248.305 310 248.305H220.2V58.385ZM307.83 205.435C324.11 205.435 337.17 200.825 347.03 191.595C356.89 182.375 361.82 169.615 361.82 153.335C361.82 137.055 356.89 124.305 347.03 115.085C337.17 105.865 324.1 101.245 307.83 101.245H273.92V205.425H307.83V205.435Z" fill="black"/>
<path d="M625 58.385V248.305H571.28V174.235H498.03V248.305H444.3V58.385H498.02V129.745H571.27V58.385H625Z" fill="black"/>
<path d="M169.57 192.285C169.57 192.285 169.59 182.525 158.22 176.175C149.4 171.245 154.64 159.685 164.27 162.145C173.9 164.605 173.04 179.535 172.4 184.135C171.76 188.735 169.57 192.285 169.57 192.285Z" fill="black"/>
<path d="M53.33 105.055C53.33 105.055 71.74 92.3549 82.56 82.9949C93.38 73.6349 99.07 55.195 94.98 44.035C90.89 32.875 84.71 30.325 84.71 30.325C84.71 30.325 86.98 54.255 72.44 66.465C53.85 82.055 53.33 105.055 53.33 105.055Z" fill="#FFD41C"/>
<path d="M116.33 52.1749C116.33 52.1749 106.78 41.225 101.47 33.595C96.16 25.965 95.53 13.435 99.9 7.06495C104.27 0.694951 108.56 0.0749512 108.56 0.0749512C108.56 0.0749512 103.29 14.775 110.48 24.795C119.69 37.6049 116.33 52.1749 116.33 52.1749Z" fill="#FFD41C"/>
<path d="M125.65 177.305C117.26 179.415 111.76 183.695 108.41 189.145C117.39 193.015 139.87 206.375 140.46 243.125C141 276.755 108.78 297.795 82.01 301.385C82.23 301.395 86.05 301.805 86.28 301.815C136.48 303.775 164.75 276.945 171.49 238.105C178.23 199.275 152.96 170.435 125.65 177.305Z" fill="black"/>
<path d="M140.47 243.135C139.88 206.375 117.39 193.025 108.42 189.155C100.88 201.465 104.41 219.805 111.02 233.025C120.57 252.095 108.62 287.535 64.43 276.975C20.24 266.415 7.67 238.525 7.67 238.525L7.24 237.415C7.24 237.415 25.65 291.925 75.71 300.685C82.34 301.845 89.2 301.525 95.66 299.615C119.07 292.655 140.94 272.575 140.47 243.135Z" fill="#58595B"/>
<path d="M31.23 212.355C47.04 189.545 81.72 176.635 108.75 161.265C135.77 145.895 126.24 118.785 126.24 118.785C126.24 118.785 122.38 129.665 96.27 144.305C70.16 158.945 55.24 168.405 55.24 168.405C55.24 168.405 33.72 179.245 20.88 199.625C9.44 217.795 14.26 236.045 21.76 246.515C23.31 247.995 24.91 249.445 26.6 250.845C28.57 252.485 30.63 253.905 32.74 255.185C21.68 244.635 20.06 228.465 31.23 212.355Z" fill="#FFD41C"/>
<path d="M55.56 263.285C48.49 257.845 46.89 249.695 54.23 235.855C62.46 220.355 80.46 207.265 80.46 207.265C88.27 199.715 98.93 192.315 115.87 175.545C144.16 147.555 126.22 118.785 126.22 118.785C126.22 118.785 135.75 145.895 108.73 161.265C81.71 176.635 47.03 189.535 31.21 212.355C20.04 228.465 21.67 244.635 32.72 255.185C40.14 259.685 48.19 262.095 55.56 263.285Z" fill="#FAA61A"/>
<path d="M55.56 263.285C69.45 265.535 80.89 263.565 80.89 263.565C80.89 263.565 55.12 252.425 67.56 225.485C70.97 218.105 74.58 213.185 79.19 208.515C79.6 208.095 80.03 207.685 80.46 207.265C80.46 207.265 62.45 220.355 54.23 235.855C46.89 249.695 48.49 257.845 55.56 263.285Z" fill="#FFD41C"/>
<path d="M108.06 60.375C108.06 60.375 118.25 82.485 105.08 96.725C91.91 110.965 65.5 127.115 35.94 156.405C8.66 183.415 2.69 204.405 4.35 221.875C8.1 231.045 14.09 239.235 21.76 246.515C14.26 236.045 9.44 217.795 20.88 199.625C33.71 179.245 55.15 168.455 55.15 168.455C55.15 168.455 69.6 153.205 92.59 133.735C146.24 88.315 108.06 60.375 108.06 60.375Z" fill="#FAA61A"/>
<path d="M35.93 156.405C65.5 127.115 91.91 110.965 105.07 96.725C118.23 82.485 108.05 60.375 108.05 60.375C108.05 60.375 105.07 79.935 80.22 98.265C55.37 116.595 14.95 143.505 4.12 175.855C-1.78 193.465 -1.05 208.685 4.35 221.865C2.69 204.405 8.66 183.415 35.93 156.405Z" fill="#FFD41C"/>
<path d="M243.63 271.865V298.905H239.5L224.59 280.595V298.905H219.61V271.865H223.74L238.65 290.175V271.865H243.63Z" fill="#FAA61A"/>
<path d="M271.17 294.695V298.905H250.89V271.865H270.63V276.075H255.91V283.105H268.97V287.235H255.91V294.695H271.17Z" fill="#FAA61A"/>
<path d="M281.8 276.075V284.305H294.86V288.555H281.8V298.905H276.78V271.865H296.52V276.075H281.8Z" fill="#FAA61A"/>
<path d="M307.06 276.115H298.1V271.865H321.05V276.115H312.09V298.905H307.07V276.115H307.06Z" fill="#FAA61A"/>
<path d="M337.83 298.405C335.89 297.815 334.35 297.025 333.21 296.045L334.95 292.145C336.06 293.025 337.42 293.735 339.03 294.285C340.64 294.835 342.26 295.115 343.88 295.115C345.89 295.115 347.39 294.795 348.38 294.145C349.37 293.505 349.87 292.655 349.87 291.595C349.87 290.825 349.59 290.185 349.04 289.685C348.49 289.185 347.78 288.795 346.93 288.505C346.08 288.225 344.92 287.905 343.45 287.535C341.39 287.045 339.72 286.555 338.45 286.065C337.18 285.575 336.08 284.805 335.17 283.765C334.26 282.725 333.8 281.315 333.8 279.535C333.8 278.045 334.21 276.685 335.02 275.455C335.83 274.235 337.05 273.255 338.69 272.535C340.33 271.815 342.33 271.455 344.7 271.455C346.35 271.455 347.97 271.665 349.57 272.075C351.17 272.485 352.54 273.075 353.7 273.855L352.12 277.755C350.93 277.055 349.7 276.535 348.41 276.175C347.12 275.815 345.87 275.635 344.66 275.635C342.68 275.635 341.2 275.975 340.24 276.635C339.27 277.305 338.79 278.195 338.79 279.305C338.79 280.075 339.07 280.705 339.62 281.195C340.17 281.685 340.88 282.075 341.73 282.355C342.58 282.635 343.74 282.965 345.21 283.325C347.22 283.785 348.87 284.275 350.15 284.775C351.44 285.275 352.54 286.045 353.45 287.075C354.36 288.105 354.82 289.495 354.82 291.245C354.82 292.735 354.41 294.095 353.6 295.305C352.79 296.515 351.56 297.485 349.91 298.205C348.26 298.925 346.25 299.285 343.88 299.285C341.79 299.295 339.78 298.995 337.83 298.405Z" fill="#FAA61A"/>
<path d="M380.08 294.695V298.905H359.8V271.865H379.54V276.075H364.82V283.105H377.88V287.235H364.82V294.695H380.08Z" fill="#FAA61A"/>
<path d="M403.38 298.905L397.86 290.985C397.63 291.015 397.28 291.025 396.82 291.025H390.72V298.905H385.7V271.865H396.83C399.17 271.865 401.22 272.255 402.95 273.025C404.69 273.795 406.02 274.905 406.95 276.345C407.88 277.785 408.34 279.505 408.34 281.485C408.34 283.525 407.84 285.275 406.85 286.735C405.86 288.205 404.44 289.295 402.58 290.015L408.8 298.905H403.38ZM401.56 277.505C400.43 276.575 398.77 276.115 396.58 276.115H390.71V286.895H396.58C398.77 286.895 400.43 286.425 401.56 285.485C402.69 284.545 403.26 283.215 403.26 281.485C403.26 279.755 402.69 278.435 401.56 277.505Z" fill="#FAA61A"/>
<path d="M438.65 271.865L426.87 298.905H421.93L410.11 271.865H415.56L424.56 292.725L433.64 271.865H438.65Z" fill="#FAA61A"/>
<path d="M442.05 268.425C441.53 267.905 441.28 267.255 441.28 266.455C441.28 265.655 441.54 264.995 442.05 264.485C442.57 263.975 443.22 263.715 444.02 263.715C444.82 263.715 445.48 263.975 445.99 264.485C446.5 265.005 446.76 265.655 446.76 266.455C446.76 267.255 446.5 267.915 445.99 268.425C445.47 268.935 444.82 269.195 444.02 269.195C443.22 269.195 442.56 268.945 442.05 268.425ZM441.51 271.865H446.53V298.905H441.51V271.865Z" fill="#FAA61A"/>
<path d="M456.17 298.405C454.23 297.815 452.69 297.025 451.55 296.045L453.29 292.145C454.4 293.025 455.76 293.735 457.37 294.285C458.98 294.835 460.6 295.115 462.22 295.115C464.23 295.115 465.73 294.795 466.72 294.145C467.71 293.505 468.21 292.655 468.21 291.595C468.21 290.825 467.93 290.185 467.38 289.685C466.83 289.185 466.12 288.795 465.27 288.505C464.42 288.225 463.26 287.905 461.79 287.535C459.73 287.045 458.06 286.555 456.79 286.065C455.52 285.575 454.42 284.805 453.51 283.765C452.6 282.725 452.14 281.315 452.14 279.535C452.14 278.045 452.55 276.685 453.36 275.455C454.17 274.235 455.39 273.255 457.03 272.535C458.67 271.815 460.67 271.455 463.04 271.455C464.69 271.455 466.31 271.665 467.91 272.075C469.51 272.485 470.88 273.075 472.04 273.855L470.46 277.755C469.27 277.055 468.04 276.535 466.75 276.175C465.46 275.815 464.21 275.635 463 275.635C461.02 275.635 459.54 275.975 458.58 276.635C457.61 277.305 457.13 278.195 457.13 279.305C457.13 280.075 457.41 280.705 457.96 281.195C458.51 281.685 459.22 282.075 460.07 282.355C460.92 282.635 462.08 282.965 463.55 283.325C465.56 283.785 467.21 284.275 468.49 284.775C469.78 285.275 470.88 286.045 471.79 287.075C472.7 288.105 473.16 289.495 473.16 291.245C473.16 292.735 472.75 294.095 471.94 295.305C471.13 296.515 469.9 297.485 468.25 298.205C466.6 298.925 464.59 299.285 462.22 299.285C460.13 299.295 458.11 298.995 456.17 298.405Z" fill="#FAA61A"/>
<path d="M494.28 276.115H485.32V271.865H508.27V276.115H499.31V298.905H494.29V276.115H494.28Z" fill="#FAA61A"/>
<path d="M512.59 268.425C512.07 267.905 511.82 267.255 511.82 266.455C511.82 265.655 512.08 264.995 512.59 264.485C513.11 263.975 513.76 263.715 514.56 263.715C515.36 263.715 516.02 263.975 516.53 264.485C517.04 265.005 517.3 265.655 517.3 266.455C517.3 267.255 517.04 267.915 516.53 268.425C516.01 268.935 515.36 269.195 514.56 269.195C513.76 269.195 513.11 268.945 512.59 268.425ZM512.05 271.865H517.07V298.905H512.05V271.865Z" fill="#FAA61A"/>
<path d="M533.68 287.595L529.39 291.995V298.915H524.37V271.875H529.39V285.745L542.76 271.875H548.4L537.04 283.965L549.09 298.915H543.22L533.68 287.595Z" fill="#FAA61A"/>
<path d="M553.08 268.425C552.56 267.905 552.31 267.255 552.31 266.455C552.31 265.655 552.57 264.995 553.08 264.485C553.6 263.975 554.25 263.715 555.05 263.715C555.85 263.715 556.51 263.975 557.02 264.485C557.53 265.005 557.79 265.655 557.79 266.455C557.79 267.255 557.53 267.915 557.02 268.425C556.5 268.935 555.85 269.195 555.05 269.195C554.25 269.195 553.59 268.945 553.08 268.425ZM552.54 271.865H557.56V298.905H552.54V271.865Z" fill="#FAA61A"/>
<path d="M588.89 271.865V298.905H584.76L569.85 280.595V298.905H564.87V271.865H569L583.91 290.175V271.865H588.89Z" fill="#FAA61A"/>
<path d="M601.64 276.115H592.68V271.865H615.63V276.115H606.67V298.905H601.65V276.115H601.64Z" fill="#FAA61A"/>
<path d="M619.95 268.425C619.43 267.905 619.18 267.255 619.18 266.455C619.18 265.655 619.44 264.995 619.95 264.485C620.47 263.975 621.12 263.715 621.92 263.715C622.72 263.715 623.38 263.975 623.89 264.485C624.4 265.005 624.66 265.655 624.66 266.455C624.66 267.255 624.4 267.915 623.89 268.425C623.37 268.935 622.72 269.195 621.92 269.195C621.12 269.195 620.47 268.945 619.95 268.425ZM619.41 271.865H624.43V298.905H619.41V271.865Z" fill="#FAA61A"/>
</g>
<defs>
<clipPath id="clip0_40_1321">
<rect width="625" height="301.85" fill="white" transform="translate(0 0.0749512)"/>
</clipPath>
</defs>
</svg>
