<svg width="449" height="217" viewBox="0 0 449 217" fill="none" xmlns="http://www.w3.org/2000/svg">
<path d="M262.101 50.4619C250.561 44.8919 237.351 42.1019 222.441 42.1019H158.091V178.182H222.441C237.341 178.182 250.561 175.392 262.101 169.822C273.631 164.252 282.581 156.342 288.931 146.102C295.281 135.862 298.451 123.882 298.451 110.142C298.451 96.4019 295.271 84.4219 288.931 74.1819C282.581 63.9419 273.631 56.0319 262.101 50.4619ZM248.981 137.552C241.911 144.162 232.551 147.462 220.891 147.462H196.591V72.8119H220.891C232.551 72.8119 241.911 76.1219 248.981 82.7319C256.041 89.3419 259.571 98.4819 259.571 110.142C259.571 121.802 256.041 130.942 248.981 137.552ZM409.651 42.1019V93.2319H357.161V42.1019H318.671V178.182H357.161V125.112H409.651V178.182H448.141V42.1019H409.651Z" fill="white"/>
<path d="M121.831 138.042C121.831 138.042 121.841 131.052 113.701 126.502C107.381 122.972 111.131 114.692 118.031 116.452C124.931 118.212 124.311 128.912 123.851 132.202C123.391 135.492 121.831 138.042 121.831 138.042Z" fill="white"/>
<path d="M90.3615 127.312C84.3515 128.822 80.4015 131.892 78.0115 135.802C72.6115 144.622 75.1315 157.762 79.8715 167.232C86.7115 180.892 78.1515 206.292 46.4915 198.722C14.8315 191.152 5.82147 171.172 5.82147 171.172L5.51147 170.372C5.51147 170.372 18.7015 209.432 54.5715 215.712C56.4015 216.032 58.4415 216.272 60.5215 216.362C61.2815 216.442 62.0615 216.522 62.1515 216.522C98.1215 217.922 118.381 198.702 123.201 170.872C128.021 143.052 109.921 122.382 90.3615 127.312Z" fill="white"/>
<path d="M68.3714 31.8219C65.4414 23.8219 61.0214 21.9919 61.0214 21.9919C61.0214 21.9919 62.6514 39.1419 52.2314 47.8819C38.9114 59.0619 38.5414 75.5319 38.5414 75.5319C38.5414 75.5319 51.7314 66.4319 59.4814 59.7319C67.2314 53.0319 71.3114 39.8219 68.3714 31.8219ZM83.6714 37.6519C83.6714 37.6519 86.0814 27.2119 79.4914 18.0419C74.3314 10.8619 78.1114 0.331909 78.1114 0.331909C78.1114 0.331909 75.0314 0.771888 71.9014 5.34189C68.7714 9.91189 69.2114 18.8819 73.0214 24.3419C76.8314 29.8019 83.6714 37.6519 83.6714 37.6519ZM57.0714 149.672C57.3714 149.372 57.6714 149.072 57.9814 148.782C63.5814 143.372 71.2114 138.072 83.3514 126.052C103.621 105.992 90.7714 85.3819 90.7714 85.3819C90.7714 85.3819 90.5514 85.8519 90.1014 86.6719C88.5114 89.3019 83.4914 95.7019 69.3014 103.662C50.5914 114.152 39.9114 120.932 39.9114 120.932C39.9114 120.932 39.8914 120.942 39.8614 120.962C40.0514 120.762 50.3614 109.912 66.6814 96.0919C105.111 63.5519 77.7614 43.5319 77.7614 43.5319C77.7614 43.5319 75.6314 57.5519 57.8214 70.6819C40.0214 83.8219 11.0514 103.102 3.29141 126.282C-0.92859 138.902 -0.408586 149.812 3.45141 159.252C6.14141 165.822 10.4314 171.692 15.9214 176.902C17.0314 177.962 18.1814 179.002 19.3914 180.002C20.8014 181.182 22.2814 182.192 23.7914 183.112C29.1014 186.332 34.8614 188.062 40.1514 188.912C50.1014 190.522 58.3014 189.112 58.3014 189.112C58.3014 189.112 39.8414 181.132 48.7514 161.832C51.1814 156.542 53.7614 153.012 57.0714 149.672Z" fill="white"/>
<path d="M174.931 195.192V214.482H171.981L161.341 201.422V214.482H157.791V195.192H160.741L171.381 208.252V195.192H174.931Z" fill="white"/>
<path d="M194.581 211.482V214.482H180.111V195.192H194.191V198.192H183.691V203.202H193.001V206.152H183.691V211.472H194.581V211.482Z" fill="white"/>
<path d="M202.161 198.192V204.062H211.471V207.092H202.161V214.472H198.581V195.182H212.661V198.182H202.161V198.192Z" fill="white"/>
<path d="M220.181 198.222H213.791V195.192H230.161V198.222H223.771V214.482H220.191V198.222H220.181Z" fill="white"/>
<path d="M242.121 214.122C240.731 213.702 239.641 213.142 238.831 212.442L240.071 209.662C240.861 210.282 241.831 210.792 242.981 211.192C244.131 211.592 245.281 211.782 246.441 211.782C247.871 211.782 248.941 211.552 249.651 211.092C250.361 210.632 250.711 210.032 250.711 209.272C250.711 208.722 250.511 208.262 250.121 207.912C249.731 207.552 249.221 207.272 248.621 207.072C248.011 206.872 247.191 206.642 246.141 206.382C244.671 206.032 243.481 205.682 242.571 205.332C241.661 204.982 240.881 204.432 240.231 203.692C239.581 202.952 239.251 201.942 239.251 200.672C239.251 199.612 239.541 198.642 240.121 197.762C240.701 196.892 241.571 196.192 242.741 195.682C243.911 195.172 245.331 194.912 247.021 194.912C248.201 194.912 249.351 195.062 250.491 195.352C251.631 195.642 252.611 196.072 253.441 196.622L252.311 199.402C251.461 198.902 250.581 198.532 249.661 198.272C248.741 198.012 247.851 197.882 246.991 197.882C245.581 197.882 244.521 198.122 243.841 198.602C243.151 199.082 242.811 199.712 242.811 200.502C242.811 201.052 243.011 201.502 243.401 201.852C243.791 202.202 244.301 202.472 244.901 202.682C245.511 202.882 246.331 203.112 247.381 203.372C248.811 203.702 249.991 204.042 250.911 204.402C251.831 204.762 252.611 205.302 253.271 206.042C253.921 206.782 254.251 207.772 254.251 209.022C254.251 210.092 253.961 211.052 253.381 211.912C252.801 212.772 251.921 213.462 250.751 213.982C249.571 214.492 248.141 214.752 246.451 214.752C244.951 214.752 243.511 214.542 242.121 214.122Z" fill="white"/>
<path d="M272.251 211.482V214.482H257.791V195.192H271.871V198.192H261.371V203.202H270.681V206.152H261.371V211.472H272.251V211.482Z" fill="white"/>
<path d="M288.871 214.482L284.931 208.832C284.761 208.852 284.521 208.862 284.191 208.862H279.841V214.482H276.261V195.192H284.201C285.871 195.192 287.331 195.472 288.571 196.022C289.811 196.572 290.761 197.362 291.421 198.392C292.081 199.422 292.411 200.642 292.411 202.052C292.411 203.502 292.061 204.752 291.351 205.802C290.641 206.852 289.631 207.632 288.311 208.142L292.751 214.482H288.871ZM287.571 199.212C286.761 198.552 285.581 198.222 284.021 198.222H279.831V205.912H284.021C285.581 205.912 286.771 205.572 287.571 204.902C288.381 204.232 288.781 203.282 288.781 202.052C288.781 200.822 288.381 199.872 287.571 199.212Z" fill="white"/>
<path d="M314.031 195.192L305.631 214.482H302.101L293.671 195.192H297.561L303.981 210.072L310.461 195.192H314.031Z" fill="white"/>
<path d="M316.451 192.742C316.081 192.372 315.901 191.902 315.901 191.332C315.901 190.762 316.081 190.292 316.451 189.922C316.821 189.552 317.291 189.372 317.861 189.372C318.431 189.372 318.901 189.552 319.271 189.922C319.641 190.292 319.821 190.762 319.821 191.332C319.821 191.902 319.641 192.372 319.271 192.742C318.901 193.112 318.431 193.292 317.861 193.292C317.291 193.292 316.821 193.112 316.451 192.742ZM316.071 195.192H319.651V214.482H316.071V195.192Z" fill="white"/>
<path d="M326.521 214.122C325.131 213.702 324.041 213.142 323.231 212.442L324.471 209.662C325.261 210.282 326.231 210.792 327.381 211.192C328.531 211.592 329.681 211.782 330.841 211.782C332.271 211.782 333.341 211.552 334.051 211.092C334.761 210.632 335.111 210.032 335.111 209.272C335.111 208.722 334.911 208.262 334.521 207.912C334.131 207.552 333.621 207.272 333.021 207.072C332.411 206.872 331.591 206.642 330.541 206.382C329.071 206.032 327.881 205.682 326.971 205.332C326.061 204.982 325.281 204.432 324.631 203.692C323.981 202.952 323.651 201.942 323.651 200.672C323.651 199.612 323.941 198.642 324.521 197.762C325.101 196.892 325.971 196.192 327.141 195.682C328.311 195.172 329.731 194.912 331.421 194.912C332.601 194.912 333.751 195.062 334.891 195.352C336.031 195.642 337.011 196.072 337.841 196.622L336.711 199.402C335.861 198.902 334.981 198.532 334.061 198.272C333.141 198.012 332.251 197.882 331.391 197.882C329.981 197.882 328.921 198.122 328.241 198.602C327.551 199.082 327.211 199.712 327.211 200.502C327.211 201.052 327.411 201.502 327.801 201.852C328.191 202.202 328.701 202.472 329.301 202.682C329.911 202.882 330.731 203.112 331.781 203.372C333.211 203.702 334.391 204.042 335.311 204.402C336.231 204.762 337.011 205.302 337.671 206.042C338.321 206.782 338.651 207.772 338.651 209.022C338.651 210.092 338.361 211.052 337.781 211.912C337.201 212.772 336.321 213.462 335.151 213.982C333.971 214.492 332.541 214.752 330.851 214.752C329.351 214.752 327.911 214.542 326.521 214.122Z" fill="white"/>
<path d="M353.701 198.222H347.311V195.192H363.681V198.222H357.291V214.482H353.711V198.222H353.701Z" fill="white"/>
<path d="M366.771 192.742C366.401 192.372 366.221 191.902 366.221 191.332C366.221 190.762 366.401 190.292 366.771 189.922C367.141 189.552 367.611 189.372 368.181 189.372C368.751 189.372 369.221 189.552 369.591 189.922C369.961 190.292 370.141 190.762 370.141 191.332C370.141 191.902 369.961 192.372 369.591 192.742C369.221 193.112 368.751 193.292 368.181 193.292C367.611 193.292 367.131 193.112 366.771 192.742ZM366.381 195.192H369.961V214.482H366.381V195.192Z" fill="white"/>
<path d="M381.811 206.412L378.751 209.552V214.482H375.171V195.192H378.751V205.082L388.281 195.192H392.301L384.201 203.812L392.801 214.472H388.611L381.811 206.412Z" fill="white"/>
<path d="M395.641 192.742C395.271 192.372 395.091 191.902 395.091 191.332C395.091 190.762 395.271 190.292 395.641 189.922C396.011 189.552 396.481 189.372 397.051 189.372C397.621 189.372 398.091 189.552 398.461 189.922C398.831 190.292 399.011 190.762 399.011 191.332C399.011 191.902 398.831 192.372 398.461 192.742C398.091 193.112 397.621 193.292 397.051 193.292C396.481 193.292 396.011 193.112 395.641 192.742ZM395.261 195.192H398.841V214.482H395.261V195.192Z" fill="white"/>
<path d="M421.191 195.192V214.482H418.241L407.601 201.422V214.482H404.051V195.192H407.001L417.641 208.252V195.192H421.191Z" fill="white"/>
<path d="M430.281 198.222H423.891V195.192H440.261V198.222H433.871V214.482H430.291V198.222H430.281Z" fill="white"/>
<path d="M443.341 192.742C442.971 192.372 442.791 191.902 442.791 191.332C442.791 190.762 442.971 190.292 443.341 189.922C443.711 189.552 444.181 189.372 444.751 189.372C445.321 189.372 445.791 189.552 446.161 189.922C446.531 190.292 446.711 190.762 446.711 191.332C446.711 191.902 446.531 192.372 446.161 192.742C445.791 193.112 445.321 193.292 444.751 193.292C444.181 193.292 443.711 193.112 443.341 192.742ZM442.951 195.192H446.531V214.482H442.951V195.192Z" fill="white"/>
</svg>
